<?xml version="1.0" encoding="iso-8859-1"?>
<!-- Uploaded to: SVG Repo, www.svgrepo.com, Generator: SVG Repo Mixer Tools -->
<svg height="800px" width="800px" version="1.1" id="Layer_1" xmlns="http://www.w3.org/2000/svg" xmlns:xlink="http://www.w3.org/1999/xlink" 
	 viewBox="0 0 503.467 503.467" xml:space="preserve">
<g transform="translate(9 25)">
	<path style="fill:#ECF4F7;" d="M421.933,218.2V423h-358.4V218.2c0-17.067,17.067-34.133,34.133-34.133h51.2H336.6h51.2
		C404.867,184.067,421.933,201.133,421.933,218.2 M242.733,320.6c14.507,0,25.6-11.093,25.6-25.6c0-14.507-11.093-25.6-25.6-25.6
		c-14.507,0-25.6,11.093-25.6,25.6C217.133,309.507,228.227,320.6,242.733,320.6"/>
	<g>
		<path style="fill:#AAB1BA;" d="M421.933,423v17.067c0,17.067-17.067,34.133-34.133,34.133H97.667
			c-17.067,0-34.133-17.067-34.133-34.133V423H421.933z"/>
		<path style="fill:#AAB1BA;" d="M242.733,269.4c14.507,0,25.6,11.093,25.6,25.6c0,14.507-11.093,25.6-25.6,25.6
			c-14.507,0-25.6-11.093-25.6-25.6C217.133,280.493,228.227,269.4,242.733,269.4"/>
	</g>
</g>
<path style="fill:#51565F;" d="M396.8,503.467H106.667c-19.627,0-38.4-18.773-38.4-38.4V448c0-2.56,1.707-4.267,4.267-4.267H396.8
	c2.56,0,4.267,1.707,4.267,4.267c0,2.56-1.707,4.267-4.267,4.267h-320v12.8c0,14.507,15.36,29.867,29.867,29.867H396.8
	c14.507,0,29.867-15.36,29.867-29.867V243.2c0-14.507-15.36-29.867-29.867-29.867h-17.067c-2.56,0-4.267-1.707-4.267-4.267
	c0-2.56,1.707-4.267,4.267-4.267H396.8c19.627,0,38.4,18.773,38.4,38.4v221.867C435.2,484.693,416.427,503.467,396.8,503.467z
	 M72.533,418.133c-2.56,0-4.267-1.707-4.267-4.267V243.2c0-19.627,18.773-38.4,38.4-38.4H153.6V98.133
	C153.6,44.373,197.973,0,251.733,0s98.133,44.373,98.133,98.133v110.933c0,2.56-1.707,4.267-4.267,4.267H192
	c-2.56,0-4.267-1.707-4.267-4.267c0-2.56,1.707-4.267,4.267-4.267h149.333V98.133c0-49.493-40.107-89.6-89.6-89.6
	s-89.6,40.107-89.6,89.6v110.933c0,2.56-1.707,4.267-4.267,4.267h-51.2c-14.507,0-29.867,15.36-29.867,29.867v170.667
	C76.8,416.427,75.093,418.133,72.533,418.133z M251.733,384c-2.56,0-4.267-1.707-4.267-4.267v-29.867
	c-14.507-1.707-25.6-14.507-25.6-29.867c0-16.213,13.653-29.867,29.867-29.867S281.6,303.787,281.6,320
	c0,15.36-11.093,27.307-25.6,29.867v29.867C256,382.293,254.293,384,251.733,384z M251.733,298.667
	c-11.947,0-21.333,9.387-21.333,21.333c0,11.947,9.387,21.333,21.333,21.333c11.947,0,21.333-9.387,21.333-21.333
	C273.067,308.053,263.68,298.667,251.733,298.667z"/>
</svg>